<svg width="87" height="79" viewBox="0 0 87 79" fill="none" xmlns="http://www.w3.org/2000/svg">
<path d="M27.4641 0.0758057C25.0086 0.218155 23.6741 0.574028 21.7701 1.64165C20.3822 2.42456 18.6741 3.9726 17.8022 5.25375C17.0904 6.28577 14.6349 10.5029 2.39291 31.784C1.02281 34.1683 0.613554 35.147 0.239888 36.9263C-0.240539 39.1861 0.00857146 41.7484 0.916045 43.9904C1.14736 44.542 3.31818 48.421 5.7559 52.6381C19.0121 75.5918 17.7844 73.5456 19.1901 74.969C20.3111 76.0722 21.3965 76.8196 22.8555 77.4779C25.3822 78.6345 24.6705 78.5811 41.9659 78.6523C58.5317 78.7235 60.8093 78.6523 62.8022 77.9762C66.2363 76.8196 68.2292 75.0402 70.5068 71.1256C72.1438 68.2609 82.8022 49.8267 84.4214 47.0153C85.9339 44.3819 86.5388 42.816 86.8235 40.752C87.1438 38.3854 86.6456 35.6808 85.4356 33.421C84.9552 32.5135 72.642 11.1256 70.4 7.3178C68.4783 4.02599 67.0015 2.53133 64.4748 1.30357C61.8591 0.0224304 62.4641 0.0580139 45.1331 0.00463104C36.5922 -0.0131607 28.6385 0.0224304 27.4641 0.0758057ZM61.2185 5.21815C62.5353 5.62741 63.7452 6.37474 64.5993 7.3178C64.9196 7.67368 66.7879 10.7342 68.7274 14.115C70.6847 17.4957 72.9267 21.3747 73.7274 22.7448C78.9232 31.6772 81.5566 36.3392 81.7701 37.0509C82.1616 38.2431 82.126 40.5029 81.699 41.695C81.521 42.2288 79.7239 45.4673 77.7488 48.9014C75.7559 52.3178 73.9943 55.3605 73.8164 55.663C73.6563 55.9477 72.642 57.7093 71.5566 59.5776C70.489 61.4281 68.6563 64.5954 67.4997 66.6061C66.3609 68.6167 65.1331 70.5918 64.7951 71.0189C63.9588 72.0331 62.5886 72.9406 61.2007 73.3676C60.1153 73.7057 59.5104 73.7235 43.4783 73.7235C27.4463 73.7235 26.8413 73.7057 25.7381 73.3676C23.0691 72.5491 22.2328 71.6061 19.0833 65.9833C18.9765 65.7876 15.9338 60.5384 12.3395 54.3285C8.72743 48.1185 5.59576 42.5669 5.36444 42.0153C4.51035 39.9513 4.68829 37.6203 5.82708 35.574C6.43206 34.4352 6.53882 34.2573 9.81284 28.6167C11.2719 26.0723 13.3538 22.4602 14.4392 20.6096C15.5068 18.7413 16.9125 16.3214 17.5709 15.2004C18.2114 14.0972 18.9765 12.7804 19.2612 12.2644C20.7915 9.52421 21.8413 7.8872 22.5175 7.15766C23.3538 6.26798 24.9552 5.32492 26.0584 5.05801C26.4499 4.96905 34.0833 4.89787 43.4072 4.88008C59.5281 4.86229 60.1153 4.88008 61.2185 5.21815Z" fill="#2596BE"/>
<path d="M28.7808 10.2715C27.6776 10.5562 26.3965 11.3392 25.5246 12.2466C25.0976 12.6737 23.5673 15.1292 21.8947 18.0295C18.7097 23.5634 18.3538 24.4708 18.5495 26.4459C18.7097 27.9762 19.1901 29.0082 22.1794 34.1683C23.6741 36.7306 24.884 38.9192 24.884 39.026C24.884 39.1327 23.5673 41.4993 21.9659 44.2929C20.3467 47.0865 18.9054 49.7733 18.7275 50.2893C18.3538 51.3925 18.3182 53.2253 18.6385 54.4174C18.7808 54.8979 20.2221 57.6203 21.8413 60.4673C25.1154 66.1612 25.6848 66.9085 27.6776 67.8872L28.8876 68.4744L43.0335 68.5278C56.8058 68.5811 57.1972 68.5634 58.3538 68.2075C59.8307 67.7626 61.4855 66.5527 62.215 65.3961C63.5495 63.2787 67.6954 55.9299 67.9979 55.1292C68.4428 53.9904 68.4784 51.5705 68.0513 50.4317C67.8912 49.9868 67.2506 48.7413 66.6278 47.6559C66.005 46.5705 65.3289 45.4139 65.1332 45.0758C64.9552 44.7377 64.1723 43.4032 63.425 42.1221C62.6776 40.8409 62.0727 39.6844 62.0727 39.5598C62.0727 39.4352 63.4072 37.0153 65.0264 34.1861C66.6456 31.3569 68.0869 28.6879 68.2292 28.2253C68.5673 27.0865 68.5317 24.8979 68.1581 23.8125C67.8734 22.9762 63.4072 15.058 62.1438 13.1185C61.3609 11.9441 59.8307 10.8231 58.3894 10.3783C57.2684 10.0402 56.7524 10.0224 43.4072 10.0402C33.0513 10.0402 29.4036 10.0936 28.7808 10.2715ZM54.5993 15.0046C54.5993 15.0936 53.7631 16.5883 52.7488 18.332C51.7346 20.0758 50.7026 21.9263 50.4356 22.4246L49.973 23.3676H37.2506C30.2577 23.3676 24.5282 23.332 24.5282 23.2787C24.5282 23.1007 28.6563 16.0011 28.9588 15.6452C29.6527 14.8445 29.6349 14.8445 42.4641 14.8267C50.1154 14.8267 54.5993 14.8979 54.5993 15.0046ZM61.5211 21.6772C64.0655 26.09 64.0833 26.1612 62.9445 28.0829C62.5531 28.7769 61.699 30.2537 61.0406 31.3747C59.4036 34.2573 59.2257 34.4886 58.941 34.1861C58.8164 34.0616 57.7488 32.2822 56.5744 30.2182C54.9552 27.4068 54.4214 26.3392 54.4214 25.8765C54.4214 25.2537 55.1154 23.937 57.9268 19.1327C58.7453 17.7448 58.9588 17.4957 59.1367 17.7093C59.2791 17.8338 60.3467 19.6132 61.5211 21.6772ZM50.7381 29.8089C51.1652 30.6274 51.9303 31.9619 52.4107 32.7982C52.909 33.6345 55.0798 37.389 57.2506 41.1612C59.4392 44.9335 61.4855 48.4744 61.8058 49.026C62.126 49.5776 62.3574 50.0758 62.2862 50.1292C62.2328 50.1826 56.5211 50.236 49.5993 50.236H36.9837L36.6456 49.542C36.4499 49.1683 33.6385 44.2929 30.4179 38.7057C27.1794 33.1007 24.5282 28.4922 24.5282 28.4388C24.5282 28.3854 30.2399 28.3498 37.2328 28.3498H49.9374L50.7381 29.8089ZM30.2043 48.0295C31.5566 50.3961 32.4285 52.1043 32.4819 52.5135C32.5353 52.994 32.4463 53.4032 32.1438 53.9726C31.183 55.7698 28.1047 61.0011 27.9623 61.0367C27.8912 61.0723 27.6243 60.752 27.3929 60.3249C23.2648 53.1719 23.2826 53.2075 23.2826 52.4602C23.2826 51.7484 24.0477 50.3071 27.3574 44.6844C27.5175 44.3997 27.731 44.1861 27.82 44.1861C27.9268 44.1861 28.9944 45.9121 30.2043 48.0295ZM62.2506 55.4139C62.2506 55.5206 61.3075 57.2466 60.1687 59.2573C58.7986 61.6239 57.8734 63.0473 57.5353 63.2964C57.0015 63.6701 56.9481 63.6701 44.6883 63.7235C36.3787 63.7591 32.3574 63.7057 32.3574 63.5811C32.3574 63.4922 33.4072 61.5527 34.7061 59.3107L37.0549 55.2182H49.6527C58.6563 55.2182 62.2506 55.2715 62.2506 55.4139Z" fill="#2596BE"/>
</svg>
