<svg width="292" height="52" viewBox="0 0 292 52" fill="none" xmlns="http://www.w3.org/2000/svg">
<path d="M17.8517 0.0492706C16.2556 0.141796 15.3882 0.373112 14.1507 1.06706C13.2485 1.57596 12.1382 2.58219 11.5715 3.41493C11.1088 4.08575 9.51275 6.82685 1.55545 20.6596C0.664885 22.2094 0.398871 22.8455 0.155988 24.0021C-0.156289 25.471 0.00563249 27.1365 0.59549 28.5938C0.745846 28.9523 2.15688 31.4736 3.7414 34.2148C12.3579 49.1347 11.5599 47.8046 12.4736 48.7299C13.2023 49.447 13.9078 49.9327 14.8562 50.3607C16.4985 51.1124 16.0359 51.0777 27.2779 51.124C38.0457 51.1703 39.5261 51.124 40.8215 50.6845C43.0537 49.9327 44.3491 48.7761 45.8295 46.2317C46.8935 44.3696 53.8215 32.3873 54.874 30.5599C55.8571 28.8482 56.2503 27.8304 56.4354 26.4888C56.6435 24.9505 56.3197 23.1925 55.5332 21.7236C55.2209 21.1338 47.2174 7.23166 45.7601 4.75657C44.511 2.61689 43.551 1.64536 41.9087 0.847313C40.2085 0.0145721 40.6017 0.0377045 29.3366 0.00300598C23.785 -0.00856018 18.6151 0.0145721 17.8517 0.0492706ZM39.7921 3.3918C40.648 3.65781 41.4345 4.14358 41.9896 4.75657C42.1978 4.98788 43.4122 6.97721 44.6729 9.17471C45.9451 11.3722 47.4024 13.8936 47.9229 14.7841C51.3001 20.5902 53.0119 23.6204 53.1507 24.0831C53.4051 24.858 53.382 26.3268 53.1044 27.1018C52.9887 27.4487 51.8206 29.5537 50.5368 31.7859C49.2414 34.0066 48.0964 35.9843 47.9807 36.1809C47.8766 36.366 47.2174 37.511 46.5119 38.7254C45.8179 39.9283 44.6266 41.987 43.8749 43.2939C43.1346 44.6009 42.3366 45.8847 42.1168 46.1623C41.5732 46.8215 40.6827 47.4114 39.7805 47.6889C39.075 47.9087 38.6818 47.9203 28.261 47.9203C17.8402 47.9203 17.4469 47.9087 16.7298 47.6889C14.995 47.1569 14.4514 46.5439 12.4042 42.8891C12.3348 42.7619 10.3571 39.35 8.02076 35.3135C5.67289 31.277 3.63731 27.6685 3.48695 27.3099C2.93179 25.9683 3.04745 24.4532 3.78766 23.1231C4.1809 22.3829 4.25029 22.2672 6.37841 18.6009C7.32681 16.947 8.68001 14.5991 9.38553 13.3962C10.0795 12.1818 10.9932 10.6089 11.4211 9.88023C11.8375 9.16315 12.3348 8.30728 12.5199 7.97187C13.5145 6.19073 14.1969 5.12667 14.6364 4.65247C15.18 4.07418 16.2209 3.46119 16.938 3.2877C17.1925 3.22987 22.1542 3.18361 28.2147 3.17205C38.6934 3.16048 39.075 3.17205 39.7921 3.3918Z" fill="#2596BE"/>
<path d="M18.7076 6.67649C17.9905 6.86154 17.1578 7.37044 16.591 7.9603C16.3134 8.23787 15.3188 9.83396 14.2316 11.7192C12.1613 15.3162 11.93 15.906 12.0572 17.1898C12.1613 18.1845 12.4736 18.8553 14.4166 22.2094C15.3882 23.8749 16.1747 25.2975 16.1747 25.3669C16.1747 25.4363 15.3188 26.9745 14.2779 28.7904C13.2254 30.6062 12.2885 32.3526 12.1729 32.6881C11.93 33.4051 11.9069 34.5964 12.115 35.3713C12.2076 35.6836 13.1444 37.4532 14.1969 39.3037C16.325 43.0048 16.6951 43.4905 17.9905 44.1267L18.777 44.5083L27.9718 44.543C36.9238 44.5777 37.1782 44.5662 37.93 44.3349C38.89 44.0457 39.9656 43.2592 40.4398 42.5074C41.3072 41.1311 44.0021 36.3544 44.1987 35.834C44.4878 35.0937 44.511 33.5208 44.2334 32.7806C44.1293 32.4914 43.7129 31.6818 43.3081 30.9763C42.9033 30.2708 42.4638 29.519 42.3366 29.2993C42.2209 29.0795 41.712 28.2121 41.2263 27.3793C40.7405 26.5466 40.3473 25.7948 40.3473 25.7139C40.3473 25.6329 41.2147 24.0599 42.2672 22.221C43.3197 20.382 44.2565 18.6471 44.349 18.3464C44.5688 17.6062 44.5457 16.1836 44.3028 15.4781C44.1177 14.9345 41.2147 9.7877 40.3935 8.52702C39.8846 7.76368 38.89 7.03503 37.9531 6.74588C37.2245 6.52613 36.8891 6.51456 28.2147 6.52613C21.4834 6.52613 19.1124 6.56083 18.7076 6.67649ZM35.4896 9.753C35.4896 9.81083 34.946 10.7824 34.2868 11.9158C33.6275 13.0493 32.9567 14.2521 32.7832 14.576L32.4825 15.1889H24.2129C19.6675 15.1889 15.9433 15.1658 15.9433 15.1311C15.9433 15.0155 18.6266 10.4007 18.8232 10.1694C19.2743 9.64891 19.2627 9.64891 27.6017 9.63734C32.575 9.63734 35.4896 9.68361 35.4896 9.753ZM39.9887 14.0902C41.6426 16.9585 41.6542 17.0048 40.914 18.2539C40.6595 18.705 40.1044 19.6649 39.6764 20.3936C38.6124 22.2672 38.4967 22.4176 38.3117 22.221C38.2307 22.14 37.5368 20.9834 36.7734 19.6418C35.7209 17.8144 35.3739 17.1204 35.3739 16.8197C35.3739 16.4149 35.825 15.559 37.6524 12.4363C38.1844 11.5341 38.3232 11.3722 38.4389 11.511C38.5314 11.592 39.2254 12.7486 39.9887 14.0902ZM32.9798 19.3758C33.2574 19.9078 33.7547 20.7752 34.067 21.3188C34.3908 21.8624 35.8019 24.3028 37.2129 26.7548C38.6355 29.2067 39.9656 31.5083 40.1738 31.8669C40.382 32.2254 40.5323 32.5493 40.486 32.584C40.4513 32.6187 36.7387 32.6534 32.2396 32.6534H24.0394L23.8197 32.2023C23.6924 31.9594 21.865 28.7904 19.7716 25.1587C17.6666 21.5155 15.9433 18.5199 15.9433 18.4852C15.9433 18.4505 19.656 18.4274 24.2013 18.4274H32.4594L32.9798 19.3758ZM19.6328 31.2192C20.5118 32.7574 21.0786 33.8678 21.1133 34.1338C21.148 34.4461 21.0901 34.7121 20.8935 35.0822C20.269 36.2503 18.2681 39.6507 18.1755 39.6738C18.1293 39.697 17.9558 39.4888 17.8054 39.2112C15.1222 34.5617 15.1337 34.5849 15.1337 34.0991C15.1337 33.6365 15.6311 32.6996 17.7823 29.0448C17.8864 28.8598 18.0252 28.721 18.083 28.721C18.1524 28.721 18.8464 29.8429 19.6328 31.2192ZM40.4629 36.019C40.4629 36.0884 39.8499 37.2103 39.1097 38.5172C38.2191 40.0555 37.6177 40.9808 37.398 41.1427C37.051 41.3856 37.0163 41.3856 29.0474 41.4203C23.6462 41.4434 21.0323 41.4087 21.0323 41.3277C21.0323 41.2699 21.7147 40.0092 22.559 38.5519L24.0857 35.8918H32.2743C38.1266 35.8918 40.4629 35.9265 40.4629 36.019Z" fill="#2596BE"/>
<path d="M74.6489 21.8291C74.5874 21.152 74.3134 20.6257 73.8272 20.2503C73.3471 19.8686 72.6607 19.6778 71.7682 19.6778C71.1773 19.6778 70.6849 19.7548 70.291 19.9086C69.897 20.0625 69.6016 20.2749 69.4046 20.5457C69.2076 20.8104 69.1061 21.1151 69.0999 21.4598C69.0876 21.7429 69.143 21.9922 69.2661 22.2076C69.3954 22.4231 69.58 22.6139 69.8201 22.7801C70.0663 22.9401 70.3617 23.0817 70.7064 23.2048C71.0511 23.3279 71.4389 23.4356 71.8698 23.528L73.4948 23.8973C74.4304 24.1004 75.2552 24.3712 75.9692 24.7098C76.6894 25.0483 77.2926 25.4515 77.7789 25.9193C78.2713 26.3871 78.6437 26.9257 78.8961 27.5351C79.1484 28.1444 79.2777 28.8277 79.2839 29.5848C79.2777 30.7789 78.9761 31.8038 78.379 32.6594C77.782 33.5149 76.9233 34.1705 75.803 34.626C74.6889 35.0815 73.344 35.3092 71.7682 35.3092C70.1863 35.3092 68.8075 35.0722 67.6319 34.5983C66.4562 34.1243 65.5421 33.4041 64.8897 32.4378C64.2372 31.4714 63.9017 30.2496 63.8833 28.7723H68.2597C68.2966 29.3817 68.4597 29.8895 68.749 30.2957C69.0383 30.702 69.4354 31.0097 69.9401 31.219C70.451 31.4283 71.0419 31.5329 71.7128 31.5329C72.3284 31.5329 72.8516 31.4498 73.2824 31.2836C73.7195 31.1174 74.0549 30.8866 74.2888 30.5912C74.5227 30.2957 74.6428 29.9572 74.6489 29.5755C74.6428 29.2185 74.532 28.9138 74.3165 28.6615C74.1011 28.403 73.7687 28.1814 73.3194 27.9967C72.8762 27.8059 72.3099 27.6305 71.6205 27.4704L69.6446 27.0088C68.0073 26.6333 66.7178 26.027 65.776 25.1899C64.8343 24.3466 64.3665 23.2079 64.3726 21.7737C64.3665 20.6042 64.6804 19.5793 65.3144 18.6991C65.9484 17.8189 66.8255 17.1326 67.9458 16.6402C69.066 16.1477 70.3433 15.9015 71.7775 15.9015C73.2424 15.9015 74.5135 16.1508 75.5907 16.6494C76.674 17.1418 77.5142 17.8343 78.1113 18.7268C78.7083 19.6193 79.013 20.6534 79.0253 21.8291H74.6489ZM88.2214 35.3369C86.7379 35.3369 85.4576 35.0445 84.3804 34.4598C83.3094 33.8689 82.4846 33.0287 81.906 31.9392C81.3336 30.8435 81.0473 29.5417 81.0473 28.0336C81.0473 26.5687 81.3366 25.2884 81.9152 24.1927C82.4938 23.0909 83.3094 22.2353 84.362 21.626C85.4145 21.0104 86.6548 20.7027 88.0829 20.7027C89.0923 20.7027 90.0156 20.8596 90.8527 21.1736C91.6899 21.4875 92.4131 21.9522 93.0225 22.5677C93.6319 23.1833 94.1058 23.9434 94.4444 24.8483C94.7829 25.7469 94.9522 26.778 94.9522 27.9413V29.0677H82.6262V26.4456H90.7512C90.745 25.9655 90.6312 25.5377 90.4096 25.1622C90.188 24.7867 89.8833 24.4943 89.4955 24.2851C89.1139 24.0696 88.6738 23.9619 88.1752 23.9619C87.6705 23.9619 87.218 24.0758 86.8179 24.3035C86.4178 24.5251 86.1009 24.8298 85.8669 25.2176C85.633 25.5992 85.5099 26.0332 85.4976 26.5194V29.1878C85.4976 29.7664 85.6115 30.2742 85.8392 30.7112C86.067 31.1421 86.3901 31.4775 86.8087 31.7176C87.2273 31.9576 87.7259 32.0777 88.3044 32.0777C88.7045 32.0777 89.0677 32.0223 89.3939 31.9115C89.7202 31.8007 90.0002 31.6376 90.2341 31.4221C90.468 31.2067 90.6435 30.942 90.7604 30.6281L94.906 30.7481C94.7337 31.6776 94.3551 32.487 93.7704 33.1764C93.1918 33.8596 92.4316 34.3921 91.4898 34.7737C90.5481 35.1492 89.4586 35.3369 88.2214 35.3369ZM101.773 26.9811V35.0692H97.2581V20.8873H101.551V23.491H101.708C102.022 22.6231 102.558 21.943 103.315 21.4505C104.072 20.952 104.974 20.7027 106.02 20.7027C107.017 20.7027 107.882 20.9273 108.615 21.3767C109.353 21.8199 109.926 22.4415 110.332 23.2417C110.744 24.0358 110.948 24.9652 110.941 26.0301V35.0692H106.426V26.9165C106.433 26.1286 106.233 25.513 105.826 25.0699C105.426 24.6267 104.869 24.4051 104.155 24.4051C103.681 24.4051 103.263 24.5097 102.899 24.719C102.542 24.9221 102.265 25.2145 102.068 25.5961C101.878 25.9778 101.779 26.4394 101.773 26.9811ZM113.737 35.0692V20.8873H118.252V35.0692H113.737ZM115.999 19.2346C115.365 19.2346 114.82 19.0254 114.364 18.6068C113.909 18.1821 113.681 17.6712 113.681 17.0741C113.681 16.4832 113.909 15.9785 114.364 15.5599C114.82 15.1352 115.365 14.9228 115.999 14.9228C116.639 14.9228 117.184 15.1352 117.633 15.5599C118.088 15.9785 118.316 16.4832 118.316 17.0741C118.316 17.6712 118.088 18.1821 117.633 18.6068C117.184 19.0254 116.639 19.2346 115.999 19.2346ZM127.745 35.3369C126.256 35.3369 124.975 35.0322 123.904 34.4228C122.84 33.8073 122.018 32.9517 121.439 31.8561C120.867 30.7543 120.581 29.4771 120.581 28.0244C120.581 26.5656 120.867 25.2884 121.439 24.1927C122.018 23.0909 122.84 22.2353 123.904 21.626C124.975 21.0104 126.256 20.7027 127.745 20.7027C129.235 20.7027 130.512 21.0104 131.577 21.626C132.648 22.2353 133.47 23.0909 134.042 24.1927C134.621 25.2884 134.91 26.5656 134.91 28.0244C134.91 29.4771 134.621 30.7543 134.042 31.8561C133.47 32.9517 132.648 33.8073 131.577 34.4228C130.512 35.0322 129.235 35.3369 127.745 35.3369ZM127.773 31.9299C128.315 31.9299 128.773 31.7638 129.149 31.4314C129.524 31.099 129.81 30.6373 130.007 30.0464C130.211 29.4555 130.312 28.7723 130.312 27.9967C130.312 27.2088 130.211 26.5194 130.007 25.9285C129.81 25.3376 129.524 24.876 129.149 24.5436C128.773 24.2112 128.315 24.045 127.773 24.045C127.213 24.045 126.739 24.2112 126.351 24.5436C125.97 24.876 125.677 25.3376 125.474 25.9285C125.277 26.5194 125.179 27.2088 125.179 27.9967C125.179 28.7723 125.277 29.4555 125.474 30.0464C125.677 30.6373 125.97 31.099 126.351 31.4314C126.739 31.7638 127.213 31.9299 127.773 31.9299ZM137.223 35.0692V20.8873H141.609V23.4726H141.756C142.015 22.537 142.436 21.8414 143.021 21.3859C143.606 20.9243 144.286 20.6934 145.062 20.6934C145.271 20.6934 145.486 20.7088 145.708 20.7396C145.93 20.7642 146.136 20.8042 146.327 20.8596V24.7836C146.111 24.7098 145.828 24.6513 145.477 24.6082C145.133 24.5651 144.825 24.5436 144.554 24.5436C144.018 24.5436 143.535 24.6636 143.104 24.9037C142.68 25.1376 142.344 25.4669 142.098 25.8916C141.858 26.3102 141.738 26.8026 141.738 27.3689V35.0692H137.223ZM148.166 35.0692V16.1601H155.977C157.393 16.1601 158.615 16.437 159.643 16.991C160.677 17.5388 161.474 18.3052 162.034 19.29C162.594 20.2687 162.874 21.4075 162.874 22.7062C162.874 24.0111 162.588 25.153 162.016 26.1317C161.449 27.1042 160.64 27.8582 159.587 28.3937C158.535 28.9292 157.285 29.197 155.839 29.197H151.019V25.5961H154.989C155.679 25.5961 156.254 25.4761 156.716 25.2361C157.184 24.996 157.538 24.6605 157.778 24.2297C158.018 23.7926 158.138 23.2848 158.138 22.7062C158.138 22.1215 158.018 21.6167 157.778 21.192C157.538 20.7611 157.184 20.4288 156.716 20.1949C156.248 19.961 155.673 19.844 154.989 19.844H152.737V35.0692H148.166ZM165.127 35.0692V20.8873H169.513V23.4726H169.661C169.919 22.537 170.341 21.8414 170.926 21.3859C171.51 20.9243 172.19 20.6934 172.966 20.6934C173.175 20.6934 173.391 20.7088 173.612 20.7396C173.834 20.7642 174.04 20.8042 174.231 20.8596V24.7836C174.016 24.7098 173.732 24.6513 173.382 24.6082C173.037 24.5651 172.729 24.5436 172.458 24.5436C171.923 24.5436 171.44 24.6636 171.009 24.9037C170.584 25.1376 170.248 25.4669 170.002 25.8916C169.762 26.3102 169.642 26.8026 169.642 27.3689V35.0692H165.127ZM181.954 35.3369C180.465 35.3369 179.184 35.0322 178.113 34.4228C177.049 33.8073 176.227 32.9517 175.648 31.8561C175.076 30.7543 174.79 29.4771 174.79 28.0244C174.79 26.5656 175.076 25.2884 175.648 24.1927C176.227 23.0909 177.049 22.2353 178.113 21.626C179.184 21.0104 180.465 20.7027 181.954 20.7027C183.444 20.7027 184.721 21.0104 185.786 21.626C186.857 22.2353 187.679 23.0909 188.251 24.1927C188.83 25.2884 189.119 26.5656 189.119 28.0244C189.119 29.4771 188.83 30.7543 188.251 31.8561C187.679 32.9517 186.857 33.8073 185.786 34.4228C184.721 35.0322 183.444 35.3369 181.954 35.3369ZM181.982 31.9299C182.524 31.9299 182.982 31.7638 183.358 31.4314C183.733 31.099 184.019 30.6373 184.216 30.0464C184.42 29.4555 184.521 28.7723 184.521 27.9967C184.521 27.2088 184.42 26.5194 184.216 25.9285C184.019 25.3376 183.733 24.876 183.358 24.5436C182.982 24.2112 182.524 24.045 181.982 24.045C181.422 24.045 180.948 24.2112 180.56 24.5436C180.179 24.876 179.886 25.3376 179.683 25.9285C179.486 26.5194 179.388 27.2088 179.388 27.9967C179.388 28.7723 179.486 29.4555 179.683 30.0464C179.886 30.6373 180.179 31.099 180.56 31.4314C180.948 31.7638 181.422 31.9299 181.982 31.9299ZM191.432 20.8873H195.947V35.6601C195.947 36.8296 195.707 37.759 195.227 38.4484C194.753 39.1378 194.082 39.6333 193.214 39.9349C192.346 40.2365 191.321 40.3873 190.139 40.3873C189.979 40.3873 189.828 40.3843 189.687 40.3781C189.545 40.3719 189.391 40.3658 189.225 40.3596V36.9342C189.336 36.9465 189.435 36.9558 189.521 36.9619C189.607 36.9681 189.693 36.9711 189.779 36.9711C190.401 36.9711 190.832 36.8542 191.072 36.6203C191.312 36.3925 191.432 36.0417 191.432 35.5677V20.8873ZM193.685 19.2346C193.051 19.2346 192.506 19.0254 192.051 18.6068C191.595 18.1821 191.367 17.6712 191.367 17.0741C191.367 16.4832 191.595 15.9785 192.051 15.5599C192.506 15.1352 193.051 14.9228 193.685 14.9228C194.325 14.9228 194.87 15.1352 195.319 15.5599C195.775 15.9785 196.002 16.4832 196.002 17.0741C196.002 17.6712 195.775 18.1821 195.319 18.6068C194.87 19.0254 194.325 19.2346 193.685 19.2346ZM205.45 35.3369C203.966 35.3369 202.686 35.0445 201.609 34.4598C200.538 33.8689 199.713 33.0287 199.135 31.9392C198.562 30.8435 198.276 29.5417 198.276 28.0336C198.276 26.5687 198.565 25.2884 199.144 24.1927C199.722 23.0909 200.538 22.2353 201.591 21.626C202.643 21.0104 203.883 20.7027 205.311 20.7027C206.321 20.7027 207.244 20.8596 208.081 21.1736C208.918 21.4875 209.642 21.9522 210.251 22.5677C210.86 23.1833 211.334 23.9434 211.673 24.8483C212.011 25.7469 212.181 26.778 212.181 27.9413V29.0677H199.855V26.4456H207.98C207.974 25.9655 207.86 25.5377 207.638 25.1622C207.417 24.7867 207.112 24.4943 206.724 24.2851C206.342 24.0696 205.902 23.9619 205.404 23.9619C204.899 23.9619 204.447 24.0758 204.046 24.3035C203.646 24.5251 203.329 24.8298 203.095 25.2176C202.862 25.5992 202.738 26.0332 202.726 26.5194V29.1878C202.726 29.7664 202.84 30.2742 203.068 30.7112C203.296 31.1421 203.619 31.4775 204.037 31.7176C204.456 31.9576 204.954 32.0777 205.533 32.0777C205.933 32.0777 206.296 32.0223 206.622 31.9115C206.949 31.8007 207.229 31.6376 207.463 31.4221C207.697 31.2067 207.872 30.942 207.989 30.6281L212.135 30.7481C211.962 31.6776 211.584 32.487 210.999 33.1764C210.42 33.8596 209.66 34.3921 208.718 34.7737C207.777 35.1492 206.687 35.3369 205.45 35.3369ZM221.107 35.3369C219.611 35.3369 218.328 35.0291 217.257 34.4136C216.192 33.7981 215.373 32.9425 214.801 31.8469C214.228 30.7451 213.942 29.4709 213.942 28.0244C213.942 26.5718 214.228 25.2976 214.801 24.202C215.379 23.1002 216.201 22.2415 217.266 21.626C218.337 21.0104 219.614 20.7027 221.097 20.7027C222.409 20.7027 223.55 20.9397 224.523 21.4136C225.502 21.8876 226.265 22.5585 226.813 23.4264C227.367 24.2881 227.659 25.3007 227.69 26.464H223.47C223.384 25.7377 223.138 25.1683 222.732 24.7559C222.332 24.3435 221.808 24.1373 221.162 24.1373C220.639 24.1373 220.18 24.2851 219.786 24.5805C219.392 24.8698 219.085 25.3007 218.863 25.8731C218.648 26.4394 218.54 27.1411 218.54 27.9782C218.54 28.8154 218.648 29.5232 218.863 30.1018C219.085 30.6743 219.392 31.1082 219.786 31.4037C220.18 31.693 220.639 31.8376 221.162 31.8376C221.581 31.8376 221.95 31.7484 222.27 31.5699C222.596 31.3914 222.864 31.1298 223.073 30.7851C223.283 30.4342 223.415 30.0095 223.47 29.5109H227.69C227.647 30.6804 227.354 31.7022 226.813 32.5763C226.277 33.4503 225.523 34.1305 224.551 34.6167C223.584 35.0969 222.436 35.3369 221.107 35.3369ZM238.005 20.8873V24.2112H229.059V20.8873H238.005ZM230.933 17.4896H235.448V30.6096C235.448 30.8866 235.491 31.1113 235.577 31.2836C235.669 31.4498 235.802 31.5699 235.974 31.6437C236.146 31.7114 236.353 31.7453 236.593 31.7453C236.765 31.7453 236.947 31.7299 237.137 31.6991C237.334 31.6622 237.482 31.6314 237.581 31.6068L238.264 34.866C238.048 34.9276 237.744 35.0045 237.35 35.0969C236.962 35.1892 236.497 35.2477 235.956 35.2723C234.897 35.3215 233.989 35.1984 233.232 34.903C232.481 34.6013 231.905 34.1335 231.505 33.4996C231.111 32.8656 230.921 32.0684 230.933 31.1082V17.4896ZM240.614 35.0692V16.1601H245.184V23.7495H252.635V16.1601H257.196V35.0692H252.635V27.4704H245.184V35.0692H240.614ZM269.213 28.9477V20.8873H273.718V35.0692H269.416V32.4285H269.268C268.954 33.2964 268.419 33.9858 267.662 34.4967C266.911 35.0014 266.003 35.2538 264.938 35.2538C263.971 35.2538 263.122 35.0322 262.39 34.589C261.657 34.1459 261.088 33.5272 260.681 32.7332C260.275 31.933 260.069 30.9974 260.063 29.9264V20.8873H264.578V29.04C264.584 29.8094 264.787 30.4157 265.187 30.8589C265.587 31.3021 266.132 31.5237 266.821 31.5237C267.271 31.5237 267.674 31.4252 268.031 31.2282C268.394 31.0251 268.68 30.7327 268.89 30.3511C269.105 29.9633 269.213 29.4955 269.213 28.9477ZM276.592 35.0692V16.1601H281.107V23.3156H281.199C281.384 22.8847 281.646 22.4692 281.984 22.0692C282.329 21.6691 282.766 21.3428 283.295 21.0905C283.831 20.8319 284.471 20.7027 285.216 20.7027C286.201 20.7027 287.121 20.9612 287.976 21.4782C288.838 21.9953 289.534 22.7924 290.063 23.8696C290.592 24.9468 290.857 26.3194 290.857 27.9875C290.857 29.594 290.602 30.9389 290.091 32.0223C289.586 33.1056 288.903 33.9181 288.041 34.4598C287.185 35.0014 286.234 35.2723 285.188 35.2723C284.474 35.2723 283.855 35.1553 283.332 34.9214C282.809 34.6875 282.369 34.3798 282.012 33.9981C281.661 33.6165 281.39 33.2072 281.199 32.7701H281.061V35.0692H276.592ZM281.015 27.9782C281.015 28.7415 281.116 29.4063 281.319 29.9726C281.529 30.5388 281.827 30.979 282.215 31.2929C282.609 31.6006 283.08 31.7545 283.628 31.7545C284.182 31.7545 284.652 31.6006 285.04 31.2929C285.428 30.979 285.72 30.5388 285.917 29.9726C286.121 29.4063 286.222 28.7415 286.222 27.9782C286.222 27.215 286.121 26.5533 285.917 25.9932C285.72 25.433 285.428 24.9991 285.04 24.6913C284.659 24.3835 284.188 24.2297 283.628 24.2297C283.074 24.2297 282.603 24.3805 282.215 24.6821C281.827 24.9837 281.529 25.4146 281.319 25.9747C281.116 26.5348 281.015 27.2027 281.015 27.9782Z" fill="#2596BE"/>
</svg>
